<mxfile host="app.diagrams.net" modified="2023-08-31T17:32:47.841Z" agent="Mozilla/5.0 (Windows NT 10.0; Win64; x64) AppleWebKit/537.36 (KHTML, like Gecko) Chrome/115.0.0.0 Safari/537.36 OPR/101.0.0.0" etag="xmPxMwOAXvcXlmucRNSo" version="21.7.1" type="device">
  <diagram name="Página-1" id="mQ_hrEZzOS43EIUEBsHJ">
    <mxGraphModel dx="3047" dy="789" grid="1" gridSize="10" guides="1" tooltips="1" connect="1" arrows="1" fold="1" page="1" pageScale="1" pageWidth="827" pageHeight="1169" math="0" shadow="0">
      <root>
        <mxCell id="0" />
        <mxCell id="1" parent="0" />
        <mxCell id="MyZ8YdXsMNBMQnsgoEEa-118" value="" style="rounded=1;whiteSpace=wrap;html=1;absoluteArcSize=1;arcSize=14;strokeWidth=2;" parent="1" vertex="1">
          <mxGeometry x="101" y="901" width="617" height="609" as="geometry" />
        </mxCell>
        <mxCell id="MyZ8YdXsMNBMQnsgoEEa-231" value="" style="rounded=1;whiteSpace=wrap;html=1;strokeWidth=2;fillWeight=4;hachureGap=8;hachureAngle=45;fillColor=#1ba1e2;sketch=1;shadow=0;opacity=20;" parent="1" vertex="1">
          <mxGeometry x="509.45" y="1150" width="180" height="326" as="geometry" />
        </mxCell>
        <mxCell id="MyZ8YdXsMNBMQnsgoEEa-69" style="edgeStyle=orthogonalEdgeStyle;rounded=0;orthogonalLoop=1;jettySize=auto;html=1;entryX=0.5;entryY=0;entryDx=0;entryDy=0;" parent="1" source="MyZ8YdXsMNBMQnsgoEEa-70" target="MyZ8YdXsMNBMQnsgoEEa-118" edge="1">
          <mxGeometry relative="1" as="geometry">
            <mxPoint x="410" y="587.9999999999998" as="targetPoint" />
          </mxGeometry>
        </mxCell>
        <mxCell id="MyZ8YdXsMNBMQnsgoEEa-70" value="" style="rounded=1;whiteSpace=wrap;html=1;absoluteArcSize=1;arcSize=14;strokeWidth=2;" parent="1" vertex="1">
          <mxGeometry x="10" y="90" width="800" height="290" as="geometry" />
        </mxCell>
        <mxCell id="MyZ8YdXsMNBMQnsgoEEa-71" style="edgeStyle=orthogonalEdgeStyle;rounded=0;orthogonalLoop=1;jettySize=auto;html=1;entryX=0;entryY=0.5;entryDx=0;entryDy=0;entryPerimeter=0;" parent="1" source="MyZ8YdXsMNBMQnsgoEEa-72" target="MyZ8YdXsMNBMQnsgoEEa-75" edge="1">
          <mxGeometry relative="1" as="geometry" />
        </mxCell>
        <mxCell id="MyZ8YdXsMNBMQnsgoEEa-72" value="Em Espera" style="strokeWidth=2;html=1;shape=mxgraph.flowchart.start_1;whiteSpace=wrap;" parent="1" vertex="1">
          <mxGeometry x="23" y="180" width="100" height="60" as="geometry" />
        </mxCell>
        <mxCell id="MyZ8YdXsMNBMQnsgoEEa-73" style="edgeStyle=orthogonalEdgeStyle;rounded=0;orthogonalLoop=1;jettySize=auto;html=1;exitX=1;exitY=0.5;exitDx=0;exitDy=0;exitPerimeter=0;entryX=0;entryY=0.5;entryDx=0;entryDy=0;entryPerimeter=0;" parent="1" source="MyZ8YdXsMNBMQnsgoEEa-75" target="MyZ8YdXsMNBMQnsgoEEa-77" edge="1">
          <mxGeometry relative="1" as="geometry" />
        </mxCell>
        <mxCell id="MyZ8YdXsMNBMQnsgoEEa-74" style="edgeStyle=orthogonalEdgeStyle;rounded=0;orthogonalLoop=1;jettySize=auto;html=1;exitX=0.145;exitY=0.145;exitDx=0;exitDy=0;exitPerimeter=0;entryX=0.855;entryY=0.145;entryDx=0;entryDy=0;entryPerimeter=0;" parent="1" source="MyZ8YdXsMNBMQnsgoEEa-75" target="MyZ8YdXsMNBMQnsgoEEa-72" edge="1">
          <mxGeometry relative="1" as="geometry" />
        </mxCell>
        <mxCell id="MyZ8YdXsMNBMQnsgoEEa-75" value="Verifica bit de Start" style="strokeWidth=2;html=1;shape=mxgraph.flowchart.start_1;whiteSpace=wrap;" parent="1" vertex="1">
          <mxGeometry x="180" y="180" width="100" height="60" as="geometry" />
        </mxCell>
        <mxCell id="MyZ8YdXsMNBMQnsgoEEa-76" style="edgeStyle=orthogonalEdgeStyle;rounded=0;orthogonalLoop=1;jettySize=auto;html=1;entryX=0;entryY=0.5;entryDx=0;entryDy=0;entryPerimeter=0;" parent="1" source="MyZ8YdXsMNBMQnsgoEEa-77" target="MyZ8YdXsMNBMQnsgoEEa-79" edge="1">
          <mxGeometry relative="1" as="geometry" />
        </mxCell>
        <mxCell id="MyZ8YdXsMNBMQnsgoEEa-77" value="Espera de bits" style="strokeWidth=2;html=1;shape=mxgraph.flowchart.start_1;whiteSpace=wrap;" parent="1" vertex="1">
          <mxGeometry x="340" y="180" width="100" height="60" as="geometry" />
        </mxCell>
        <mxCell id="MyZ8YdXsMNBMQnsgoEEa-78" style="edgeStyle=orthogonalEdgeStyle;rounded=0;orthogonalLoop=1;jettySize=auto;html=1;entryX=0;entryY=0.5;entryDx=0;entryDy=0;entryPerimeter=0;" parent="1" source="MyZ8YdXsMNBMQnsgoEEa-79" target="MyZ8YdXsMNBMQnsgoEEa-84" edge="1">
          <mxGeometry relative="1" as="geometry" />
        </mxCell>
        <mxCell id="MyZ8YdXsMNBMQnsgoEEa-79" value="Stop" style="strokeWidth=2;html=1;shape=mxgraph.flowchart.start_1;whiteSpace=wrap;" parent="1" vertex="1">
          <mxGeometry x="500" y="180" width="100" height="60" as="geometry" />
        </mxCell>
        <mxCell id="MyZ8YdXsMNBMQnsgoEEa-80" style="edgeStyle=orthogonalEdgeStyle;rounded=0;orthogonalLoop=1;jettySize=auto;html=1;entryX=0.5;entryY=1;entryDx=0;entryDy=0;entryPerimeter=0;" parent="1" source="MyZ8YdXsMNBMQnsgoEEa-75" target="MyZ8YdXsMNBMQnsgoEEa-75" edge="1">
          <mxGeometry relative="1" as="geometry" />
        </mxCell>
        <mxCell id="MyZ8YdXsMNBMQnsgoEEa-81" style="edgeStyle=orthogonalEdgeStyle;rounded=0;orthogonalLoop=1;jettySize=auto;html=1;entryX=0.5;entryY=1;entryDx=0;entryDy=0;entryPerimeter=0;" parent="1" source="MyZ8YdXsMNBMQnsgoEEa-77" target="MyZ8YdXsMNBMQnsgoEEa-77" edge="1">
          <mxGeometry relative="1" as="geometry" />
        </mxCell>
        <mxCell id="MyZ8YdXsMNBMQnsgoEEa-82" style="edgeStyle=orthogonalEdgeStyle;rounded=0;orthogonalLoop=1;jettySize=auto;html=1;entryX=0.5;entryY=1;entryDx=0;entryDy=0;entryPerimeter=0;" parent="1" source="MyZ8YdXsMNBMQnsgoEEa-79" target="MyZ8YdXsMNBMQnsgoEEa-79" edge="1">
          <mxGeometry relative="1" as="geometry" />
        </mxCell>
        <mxCell id="MyZ8YdXsMNBMQnsgoEEa-83" style="edgeStyle=orthogonalEdgeStyle;rounded=0;orthogonalLoop=1;jettySize=auto;html=1;entryX=0.5;entryY=1;entryDx=0;entryDy=0;entryPerimeter=0;" parent="1" source="MyZ8YdXsMNBMQnsgoEEa-84" target="MyZ8YdXsMNBMQnsgoEEa-72" edge="1">
          <mxGeometry relative="1" as="geometry">
            <mxPoint x="80" y="260" as="targetPoint" />
            <Array as="points">
              <mxPoint x="801" y="210" />
              <mxPoint x="801" y="350" />
              <mxPoint x="73" y="350" />
              <mxPoint x="73" y="240" />
            </Array>
          </mxGeometry>
        </mxCell>
        <mxCell id="MyZ8YdXsMNBMQnsgoEEa-84" value="Limpeza" style="strokeWidth=2;html=1;shape=mxgraph.flowchart.start_1;whiteSpace=wrap;" parent="1" vertex="1">
          <mxGeometry x="650" y="180" width="100" height="60" as="geometry" />
        </mxCell>
        <mxCell id="MyZ8YdXsMNBMQnsgoEEa-85" value="&lt;font style=&quot;font-size: 18px;&quot;&gt;PROCESSO DE RECEBIMENTO DE DADOS&lt;/font&gt;" style="text;html=1;align=center;verticalAlign=middle;resizable=0;points=[];autosize=1;strokeColor=none;fillColor=none;" parent="1" vertex="1">
          <mxGeometry x="218" y="98" width="390" height="40" as="geometry" />
        </mxCell>
        <mxCell id="MyZ8YdXsMNBMQnsgoEEa-86" style="edgeStyle=orthogonalEdgeStyle;rounded=0;orthogonalLoop=1;jettySize=auto;html=1;entryX=0;entryY=0.5;entryDx=0;entryDy=0;" parent="1" source="MyZ8YdXsMNBMQnsgoEEa-87" target="MyZ8YdXsMNBMQnsgoEEa-70" edge="1">
          <mxGeometry relative="1" as="geometry" />
        </mxCell>
        <mxCell id="MyZ8YdXsMNBMQnsgoEEa-87" value="&lt;font style=&quot;font-size: 18px;&quot;&gt;COMPUTADOR&lt;/font&gt;" style="rounded=1;whiteSpace=wrap;html=1;absoluteArcSize=1;arcSize=14;strokeWidth=2;" parent="1" vertex="1">
          <mxGeometry x="-560" y="180" width="220" height="110" as="geometry" />
        </mxCell>
        <mxCell id="MyZ8YdXsMNBMQnsgoEEa-91" value="&lt;font style=&quot;font-size: 14px;&quot;&gt;se comando/endereço estiver errado&lt;br&gt;protocolo: código&amp;nbsp;0x0F&lt;span id=&quot;docs-internal-guid-dd11562c-7fff-b196-a5f1-1cb1bf932096&quot;&gt;&lt;/span&gt;&lt;span id=&quot;docs-internal-guid-dd11562c-7fff-b196-a5f1-1cb1bf932096&quot;&gt;&lt;/span&gt;&lt;br&gt;&lt;/font&gt;" style="text;html=1;align=center;verticalAlign=middle;resizable=0;points=[];autosize=1;strokeColor=none;fillColor=none;" parent="1" vertex="1">
          <mxGeometry x="-280" y="1378" width="250" height="50" as="geometry" />
        </mxCell>
        <mxCell id="MyZ8YdXsMNBMQnsgoEEa-93" value="" style="rounded=1;whiteSpace=wrap;html=1;absoluteArcSize=1;arcSize=14;strokeWidth=2;" parent="1" vertex="1">
          <mxGeometry x="-850" y="490" width="800" height="290" as="geometry" />
        </mxCell>
        <mxCell id="MyZ8YdXsMNBMQnsgoEEa-94" style="edgeStyle=orthogonalEdgeStyle;rounded=0;orthogonalLoop=1;jettySize=auto;html=1;entryX=0;entryY=0.5;entryDx=0;entryDy=0;entryPerimeter=0;" parent="1" source="MyZ8YdXsMNBMQnsgoEEa-95" target="MyZ8YdXsMNBMQnsgoEEa-98" edge="1">
          <mxGeometry relative="1" as="geometry" />
        </mxCell>
        <mxCell id="MyZ8YdXsMNBMQnsgoEEa-95" value="Em Espera" style="strokeWidth=2;html=1;shape=mxgraph.flowchart.start_1;whiteSpace=wrap;" parent="1" vertex="1">
          <mxGeometry x="-837" y="580" width="100" height="60" as="geometry" />
        </mxCell>
        <mxCell id="MyZ8YdXsMNBMQnsgoEEa-96" style="edgeStyle=orthogonalEdgeStyle;rounded=0;orthogonalLoop=1;jettySize=auto;html=1;exitX=1;exitY=0.5;exitDx=0;exitDy=0;exitPerimeter=0;entryX=0;entryY=0.5;entryDx=0;entryDy=0;entryPerimeter=0;" parent="1" source="MyZ8YdXsMNBMQnsgoEEa-98" target="MyZ8YdXsMNBMQnsgoEEa-100" edge="1">
          <mxGeometry relative="1" as="geometry" />
        </mxCell>
        <mxCell id="MyZ8YdXsMNBMQnsgoEEa-97" style="edgeStyle=orthogonalEdgeStyle;rounded=0;orthogonalLoop=1;jettySize=auto;html=1;exitX=0.145;exitY=0.145;exitDx=0;exitDy=0;exitPerimeter=0;entryX=0.855;entryY=0.145;entryDx=0;entryDy=0;entryPerimeter=0;" parent="1" source="MyZ8YdXsMNBMQnsgoEEa-98" target="MyZ8YdXsMNBMQnsgoEEa-95" edge="1">
          <mxGeometry relative="1" as="geometry" />
        </mxCell>
        <mxCell id="MyZ8YdXsMNBMQnsgoEEa-98" value="Envia bit de &lt;br&gt;inicio" style="strokeWidth=2;html=1;shape=mxgraph.flowchart.start_1;whiteSpace=wrap;" parent="1" vertex="1">
          <mxGeometry x="-680" y="580" width="100" height="60" as="geometry" />
        </mxCell>
        <mxCell id="MyZ8YdXsMNBMQnsgoEEa-99" style="edgeStyle=orthogonalEdgeStyle;rounded=0;orthogonalLoop=1;jettySize=auto;html=1;entryX=0;entryY=0.5;entryDx=0;entryDy=0;entryPerimeter=0;" parent="1" source="MyZ8YdXsMNBMQnsgoEEa-100" target="MyZ8YdXsMNBMQnsgoEEa-102" edge="1">
          <mxGeometry relative="1" as="geometry" />
        </mxCell>
        <mxCell id="MyZ8YdXsMNBMQnsgoEEa-100" value="Envia bits" style="strokeWidth=2;html=1;shape=mxgraph.flowchart.start_1;whiteSpace=wrap;" parent="1" vertex="1">
          <mxGeometry x="-520" y="580" width="100" height="60" as="geometry" />
        </mxCell>
        <mxCell id="MyZ8YdXsMNBMQnsgoEEa-101" style="edgeStyle=orthogonalEdgeStyle;rounded=0;orthogonalLoop=1;jettySize=auto;html=1;entryX=0;entryY=0.5;entryDx=0;entryDy=0;entryPerimeter=0;" parent="1" source="MyZ8YdXsMNBMQnsgoEEa-102" target="MyZ8YdXsMNBMQnsgoEEa-107" edge="1">
          <mxGeometry relative="1" as="geometry" />
        </mxCell>
        <mxCell id="MyZ8YdXsMNBMQnsgoEEa-102" value="Envia bit final" style="strokeWidth=2;html=1;shape=mxgraph.flowchart.start_1;whiteSpace=wrap;" parent="1" vertex="1">
          <mxGeometry x="-360" y="580" width="100" height="60" as="geometry" />
        </mxCell>
        <mxCell id="MyZ8YdXsMNBMQnsgoEEa-103" style="edgeStyle=orthogonalEdgeStyle;rounded=0;orthogonalLoop=1;jettySize=auto;html=1;entryX=0.5;entryY=1;entryDx=0;entryDy=0;entryPerimeter=0;" parent="1" source="MyZ8YdXsMNBMQnsgoEEa-98" target="MyZ8YdXsMNBMQnsgoEEa-98" edge="1">
          <mxGeometry relative="1" as="geometry" />
        </mxCell>
        <mxCell id="MyZ8YdXsMNBMQnsgoEEa-104" style="edgeStyle=orthogonalEdgeStyle;rounded=0;orthogonalLoop=1;jettySize=auto;html=1;entryX=0.5;entryY=1;entryDx=0;entryDy=0;entryPerimeter=0;" parent="1" source="MyZ8YdXsMNBMQnsgoEEa-100" target="MyZ8YdXsMNBMQnsgoEEa-100" edge="1">
          <mxGeometry relative="1" as="geometry" />
        </mxCell>
        <mxCell id="MyZ8YdXsMNBMQnsgoEEa-105" style="edgeStyle=orthogonalEdgeStyle;rounded=0;orthogonalLoop=1;jettySize=auto;html=1;entryX=0.5;entryY=1;entryDx=0;entryDy=0;entryPerimeter=0;" parent="1" source="MyZ8YdXsMNBMQnsgoEEa-102" target="MyZ8YdXsMNBMQnsgoEEa-102" edge="1">
          <mxGeometry relative="1" as="geometry" />
        </mxCell>
        <mxCell id="MyZ8YdXsMNBMQnsgoEEa-106" style="edgeStyle=orthogonalEdgeStyle;rounded=0;orthogonalLoop=1;jettySize=auto;html=1;entryX=0.5;entryY=1;entryDx=0;entryDy=0;entryPerimeter=0;" parent="1" source="MyZ8YdXsMNBMQnsgoEEa-107" target="MyZ8YdXsMNBMQnsgoEEa-95" edge="1">
          <mxGeometry relative="1" as="geometry">
            <mxPoint x="-780" y="660" as="targetPoint" />
            <Array as="points">
              <mxPoint x="-59" y="610" />
              <mxPoint x="-59" y="750" />
              <mxPoint x="-787" y="750" />
              <mxPoint x="-787" y="640" />
            </Array>
          </mxGeometry>
        </mxCell>
        <mxCell id="MyZ8YdXsMNBMQnsgoEEa-243" style="edgeStyle=orthogonalEdgeStyle;rounded=0;orthogonalLoop=1;jettySize=auto;html=1;entryX=0.5;entryY=0;entryDx=0;entryDy=0;" parent="1" source="MyZ8YdXsMNBMQnsgoEEa-107" target="MyZ8YdXsMNBMQnsgoEEa-122" edge="1">
          <mxGeometry relative="1" as="geometry">
            <Array as="points">
              <mxPoint x="-160" y="700" />
              <mxPoint x="410" y="700" />
            </Array>
          </mxGeometry>
        </mxCell>
        <mxCell id="MyZ8YdXsMNBMQnsgoEEa-107" value="Limpeza" style="strokeWidth=2;html=1;shape=mxgraph.flowchart.start_1;whiteSpace=wrap;" parent="1" vertex="1">
          <mxGeometry x="-210" y="580" width="100" height="60" as="geometry" />
        </mxCell>
        <mxCell id="MyZ8YdXsMNBMQnsgoEEa-108" style="edgeStyle=orthogonalEdgeStyle;rounded=0;orthogonalLoop=1;jettySize=auto;html=1;entryX=0.5;entryY=1;entryDx=0;entryDy=0;exitX=0.5;exitY=0;exitDx=0;exitDy=0;" parent="1" source="MyZ8YdXsMNBMQnsgoEEa-93" target="MyZ8YdXsMNBMQnsgoEEa-87" edge="1">
          <mxGeometry relative="1" as="geometry">
            <mxPoint x="-450" y="480" as="sourcePoint" />
          </mxGeometry>
        </mxCell>
        <mxCell id="MyZ8YdXsMNBMQnsgoEEa-109" value="&lt;font style=&quot;font-size: 18px;&quot;&gt;PROCESSO DE ENVIO DE DADOS&lt;/font&gt;" style="text;html=1;align=center;verticalAlign=middle;resizable=0;points=[];autosize=1;strokeColor=none;fillColor=none;" parent="1" vertex="1">
          <mxGeometry x="-609" y="498" width="320" height="40" as="geometry" />
        </mxCell>
        <mxCell id="MyZ8YdXsMNBMQnsgoEEa-110" value="&lt;font style=&quot;font-size: 14px;&quot;&gt;comando/resultado&lt;/font&gt;" style="text;html=1;align=center;verticalAlign=middle;resizable=0;points=[];autosize=1;strokeColor=none;fillColor=none;" parent="1" vertex="1">
          <mxGeometry x="-450" y="380" width="140" height="30" as="geometry" />
        </mxCell>
        <mxCell id="MyZ8YdXsMNBMQnsgoEEa-111" value="&lt;font style=&quot;font-size: 14px;&quot;&gt;comando e endereço&lt;/font&gt;" style="text;html=1;align=center;verticalAlign=middle;resizable=0;points=[];autosize=1;strokeColor=none;fillColor=none;" parent="1" vertex="1">
          <mxGeometry x="-270" y="206" width="160" height="30" as="geometry" />
        </mxCell>
        <mxCell id="MyZ8YdXsMNBMQnsgoEEa-112" value="&lt;span style=&quot;font-size: 14px;&quot;&gt;2 bytes&lt;/span&gt;" style="text;html=1;align=center;verticalAlign=middle;resizable=0;points=[];autosize=1;strokeColor=none;fillColor=none;" parent="1" vertex="1">
          <mxGeometry x="410" y="830" width="70" height="30" as="geometry" />
        </mxCell>
        <mxCell id="MyZ8YdXsMNBMQnsgoEEa-114" value="" style="shape=image;verticalLabelPosition=bottom;labelBackgroundColor=default;verticalAlign=top;aspect=fixed;imageAspect=0;image=https://www.makerhero.com/wp-content/uploads/2017/07/Dht11.jpg;" parent="1" vertex="1">
          <mxGeometry x="1070" y="1260" width="110" height="110" as="geometry" />
        </mxCell>
        <mxCell id="MyZ8YdXsMNBMQnsgoEEa-119" value="&lt;font style=&quot;font-size: 14px;&quot;&gt;confirmação e envio de dados&lt;/font&gt;" style="text;html=1;align=center;verticalAlign=middle;resizable=0;points=[];autosize=1;strokeColor=none;fillColor=none;" parent="1" vertex="1">
          <mxGeometry x="804" y="1290" width="210" height="30" as="geometry" />
        </mxCell>
        <mxCell id="MyZ8YdXsMNBMQnsgoEEa-120" value="&lt;font style=&quot;font-size: 14px;&quot;&gt;protocolo: comando e resultado&lt;br&gt;&lt;/font&gt;" style="text;html=1;align=center;verticalAlign=middle;resizable=0;points=[];autosize=1;strokeColor=none;fillColor=none;" parent="1" vertex="1">
          <mxGeometry x="590" y="600" width="220" height="30" as="geometry" />
        </mxCell>
        <mxCell id="MyZ8YdXsMNBMQnsgoEEa-149" style="edgeStyle=orthogonalEdgeStyle;rounded=0;orthogonalLoop=1;jettySize=auto;html=1;" parent="1" source="MyZ8YdXsMNBMQnsgoEEa-122" target="MyZ8YdXsMNBMQnsgoEEa-148" edge="1">
          <mxGeometry relative="1" as="geometry" />
        </mxCell>
        <mxCell id="MyZ8YdXsMNBMQnsgoEEa-122" value="Espera" style="ellipse;whiteSpace=wrap;html=1;" parent="1" vertex="1">
          <mxGeometry x="350" y="920" width="120" height="80" as="geometry" />
        </mxCell>
        <mxCell id="MyZ8YdXsMNBMQnsgoEEa-123" style="edgeStyle=orthogonalEdgeStyle;rounded=0;orthogonalLoop=1;jettySize=auto;html=1;" parent="1" source="MyZ8YdXsMNBMQnsgoEEa-124" target="MyZ8YdXsMNBMQnsgoEEa-126" edge="1">
          <mxGeometry relative="1" as="geometry" />
        </mxCell>
        <mxCell id="MyZ8YdXsMNBMQnsgoEEa-124" value="Recebe dados &lt;br&gt;sensor" style="ellipse;whiteSpace=wrap;html=1;" parent="1" vertex="1">
          <mxGeometry x="539.45" y="1275" width="120" height="80" as="geometry" />
        </mxCell>
        <mxCell id="MyZ8YdXsMNBMQnsgoEEa-170" style="edgeStyle=orthogonalEdgeStyle;rounded=0;orthogonalLoop=1;jettySize=auto;html=1;" parent="1" source="MyZ8YdXsMNBMQnsgoEEa-126" target="MyZ8YdXsMNBMQnsgoEEa-127" edge="1">
          <mxGeometry relative="1" as="geometry" />
        </mxCell>
        <mxCell id="MyZ8YdXsMNBMQnsgoEEa-126" value="Separa dado solicitado" style="ellipse;whiteSpace=wrap;html=1;" parent="1" vertex="1">
          <mxGeometry x="539.45" y="1166" width="120" height="80" as="geometry" />
        </mxCell>
        <mxCell id="MyZ8YdXsMNBMQnsgoEEa-223" style="edgeStyle=orthogonalEdgeStyle;rounded=0;orthogonalLoop=1;jettySize=auto;html=1;entryX=1;entryY=0.5;entryDx=0;entryDy=0;exitX=1;exitY=0.5;exitDx=0;exitDy=0;" parent="1" source="MyZ8YdXsMNBMQnsgoEEa-127" target="MyZ8YdXsMNBMQnsgoEEa-93" edge="1">
          <mxGeometry relative="1" as="geometry">
            <Array as="points">
              <mxPoint x="830" y="1070" />
              <mxPoint x="830" y="635" />
            </Array>
          </mxGeometry>
        </mxCell>
        <mxCell id="xMwsVCY1hg7gADn5wVJ1-2" style="edgeStyle=orthogonalEdgeStyle;rounded=0;orthogonalLoop=1;jettySize=auto;html=1;" edge="1" parent="1" source="MyZ8YdXsMNBMQnsgoEEa-127" target="xMwsVCY1hg7gADn5wVJ1-1">
          <mxGeometry relative="1" as="geometry" />
        </mxCell>
        <mxCell id="MyZ8YdXsMNBMQnsgoEEa-127" value="Envia comando e dados para o PC (TX)" style="ellipse;whiteSpace=wrap;html=1;" parent="1" vertex="1">
          <mxGeometry x="539.45" y="1032" width="120" height="80" as="geometry" />
        </mxCell>
        <mxCell id="MyZ8YdXsMNBMQnsgoEEa-132" style="edgeStyle=orthogonalEdgeStyle;rounded=0;orthogonalLoop=1;jettySize=auto;html=1;" parent="1" source="MyZ8YdXsMNBMQnsgoEEa-133" target="MyZ8YdXsMNBMQnsgoEEa-124" edge="1">
          <mxGeometry relative="1" as="geometry" />
        </mxCell>
        <mxCell id="MyZ8YdXsMNBMQnsgoEEa-226" style="edgeStyle=orthogonalEdgeStyle;rounded=0;orthogonalLoop=1;jettySize=auto;html=1;entryX=0.5;entryY=1;entryDx=0;entryDy=0;" parent="1" source="MyZ8YdXsMNBMQnsgoEEa-133" target="MyZ8YdXsMNBMQnsgoEEa-114" edge="1">
          <mxGeometry relative="1" as="geometry" />
        </mxCell>
        <mxCell id="MyZ8YdXsMNBMQnsgoEEa-133" value="Envia bit de comunicação para o anexo do sensor" style="ellipse;whiteSpace=wrap;html=1;" parent="1" vertex="1">
          <mxGeometry x="539.45" y="1382" width="120" height="80" as="geometry" />
        </mxCell>
        <mxCell id="MyZ8YdXsMNBMQnsgoEEa-134" style="edgeStyle=orthogonalEdgeStyle;rounded=0;orthogonalLoop=1;jettySize=auto;html=1;" parent="1" source="MyZ8YdXsMNBMQnsgoEEa-122" target="MyZ8YdXsMNBMQnsgoEEa-122" edge="1">
          <mxGeometry relative="1" as="geometry" />
        </mxCell>
        <mxCell id="MyZ8YdXsMNBMQnsgoEEa-135" style="edgeStyle=orthogonalEdgeStyle;rounded=0;orthogonalLoop=1;jettySize=auto;html=1;" parent="1" source="MyZ8YdXsMNBMQnsgoEEa-124" target="MyZ8YdXsMNBMQnsgoEEa-124" edge="1">
          <mxGeometry relative="1" as="geometry" />
        </mxCell>
        <mxCell id="MyZ8YdXsMNBMQnsgoEEa-136" value="&lt;font style=&quot;font-size: 14px;&quot;&gt;DHT11&lt;/font&gt;" style="text;html=1;align=center;verticalAlign=middle;resizable=0;points=[];autosize=1;strokeColor=none;fillColor=none;" parent="1" vertex="1">
          <mxGeometry x="1090" y="1235" width="70" height="30" as="geometry" />
        </mxCell>
        <mxCell id="MyZ8YdXsMNBMQnsgoEEa-152" style="edgeStyle=orthogonalEdgeStyle;rounded=0;orthogonalLoop=1;jettySize=auto;html=1;" parent="1" source="MyZ8YdXsMNBMQnsgoEEa-138" target="MyZ8YdXsMNBMQnsgoEEa-139" edge="1">
          <mxGeometry relative="1" as="geometry" />
        </mxCell>
        <mxCell id="MyZ8YdXsMNBMQnsgoEEa-138" value="Recebe comando e endereço" style="ellipse;whiteSpace=wrap;html=1;" parent="1" vertex="1">
          <mxGeometry x="160" y="1265" width="120" height="80" as="geometry" />
        </mxCell>
        <mxCell id="MyZ8YdXsMNBMQnsgoEEa-174" style="edgeStyle=orthogonalEdgeStyle;rounded=0;orthogonalLoop=1;jettySize=auto;html=1;" parent="1" source="MyZ8YdXsMNBMQnsgoEEa-139" target="MyZ8YdXsMNBMQnsgoEEa-93" edge="1">
          <mxGeometry relative="1" as="geometry" />
        </mxCell>
        <mxCell id="MyZ8YdXsMNBMQnsgoEEa-139" value="Verifica/valida e seleciona comando e endereço" style="ellipse;whiteSpace=wrap;html=1;" parent="1" vertex="1">
          <mxGeometry x="160" y="1382" width="120" height="80" as="geometry" />
        </mxCell>
        <mxCell id="MyZ8YdXsMNBMQnsgoEEa-178" style="edgeStyle=orthogonalEdgeStyle;rounded=0;orthogonalLoop=1;jettySize=auto;html=1;entryX=0.5;entryY=0;entryDx=0;entryDy=0;" parent="1" source="MyZ8YdXsMNBMQnsgoEEa-148" target="MyZ8YdXsMNBMQnsgoEEa-177" edge="1">
          <mxGeometry relative="1" as="geometry" />
        </mxCell>
        <mxCell id="MyZ8YdXsMNBMQnsgoEEa-148" value="Solicitação de requisição vinda do PC" style="ellipse;whiteSpace=wrap;html=1;" parent="1" vertex="1">
          <mxGeometry x="160" y="1020" width="120" height="80" as="geometry" />
        </mxCell>
        <mxCell id="MyZ8YdXsMNBMQnsgoEEa-171" value="&lt;font style=&quot;font-size: 12px;&quot;&gt;o processamento de separação&lt;br&gt;&amp;nbsp;do dado solicitado é feito &lt;br&gt;pelo módulo de sensor&lt;/font&gt;" style="text;html=1;align=center;verticalAlign=middle;resizable=0;points=[];autosize=1;strokeColor=none;fillColor=none;" parent="1" vertex="1">
          <mxGeometry x="377.45" y="1246" width="190" height="60" as="geometry" />
        </mxCell>
        <mxCell id="MyZ8YdXsMNBMQnsgoEEa-92" value="&lt;font style=&quot;font-size: 12px;&quot;&gt;se comando/endereço estiver correto&lt;br&gt;protocolo: comando e endereço&lt;br&gt;&lt;/font&gt;" style="text;html=1;align=center;verticalAlign=middle;resizable=0;points=[];autosize=1;strokeColor=none;fillColor=none;" parent="1" vertex="1">
          <mxGeometry x="110" y="1462" width="220" height="40" as="geometry" />
        </mxCell>
        <mxCell id="MyZ8YdXsMNBMQnsgoEEa-179" style="edgeStyle=orthogonalEdgeStyle;rounded=0;orthogonalLoop=1;jettySize=auto;html=1;" parent="1" source="MyZ8YdXsMNBMQnsgoEEa-177" target="MyZ8YdXsMNBMQnsgoEEa-138" edge="1">
          <mxGeometry relative="1" as="geometry" />
        </mxCell>
        <mxCell id="MyZ8YdXsMNBMQnsgoEEa-182" style="edgeStyle=orthogonalEdgeStyle;rounded=0;orthogonalLoop=1;jettySize=auto;html=1;" parent="1" source="MyZ8YdXsMNBMQnsgoEEa-177" edge="1">
          <mxGeometry relative="1" as="geometry">
            <mxPoint x="-450" y="780" as="targetPoint" />
          </mxGeometry>
        </mxCell>
        <mxCell id="MyZ8YdXsMNBMQnsgoEEa-177" value="Resposta de requisição para o PC" style="ellipse;whiteSpace=wrap;html=1;" parent="1" vertex="1">
          <mxGeometry x="160" y="1147" width="120" height="80" as="geometry" />
        </mxCell>
        <mxCell id="MyZ8YdXsMNBMQnsgoEEa-181" value="&lt;font style=&quot;font-size: 14px;&quot;&gt;se a requisição de start for incorreta, retornar erro&lt;br&gt;se a requisição de start for correta, retornar&amp;nbsp;0x11&lt;span id=&quot;docs-internal-guid-1c78c80e-7fff-0480-eb3f-a27785ae19c2&quot;&gt;&lt;/span&gt;&lt;br&gt;&lt;/font&gt;" style="text;html=1;align=center;verticalAlign=middle;resizable=0;points=[];autosize=1;strokeColor=none;fillColor=none;" parent="1" vertex="1">
          <mxGeometry x="-339" y="1140" width="330" height="50" as="geometry" />
        </mxCell>
        <mxCell id="MyZ8YdXsMNBMQnsgoEEa-236" style="edgeStyle=orthogonalEdgeStyle;rounded=0;orthogonalLoop=1;jettySize=auto;html=1;" parent="1" target="MyZ8YdXsMNBMQnsgoEEa-133" edge="1">
          <mxGeometry relative="1" as="geometry">
            <mxPoint x="279.45" y="1422" as="sourcePoint" />
          </mxGeometry>
        </mxCell>
        <mxCell id="MyZ8YdXsMNBMQnsgoEEa-222" value="envia comando (o dado requisitado)&lt;br&gt;para o módulo do sensor" style="text;html=1;align=center;verticalAlign=middle;resizable=0;points=[];autosize=1;strokeColor=none;fillColor=none;" parent="1" vertex="1">
          <mxGeometry x="289.45" y="1422" width="210" height="40" as="geometry" />
        </mxCell>
        <mxCell id="MyZ8YdXsMNBMQnsgoEEa-224" style="edgeStyle=orthogonalEdgeStyle;rounded=0;orthogonalLoop=1;jettySize=auto;html=1;entryX=1;entryY=0.5;entryDx=0;entryDy=0;" parent="1" source="MyZ8YdXsMNBMQnsgoEEa-114" target="MyZ8YdXsMNBMQnsgoEEa-124" edge="1">
          <mxGeometry relative="1" as="geometry" />
        </mxCell>
        <mxCell id="MyZ8YdXsMNBMQnsgoEEa-233" value="módulo de sensor geral" style="text;html=1;align=center;verticalAlign=middle;resizable=0;points=[];autosize=1;strokeColor=none;fillColor=none;" parent="1" vertex="1">
          <mxGeometry x="523.45" y="1471" width="150" height="30" as="geometry" />
        </mxCell>
        <mxCell id="MyZ8YdXsMNBMQnsgoEEa-234" value="&lt;font style=&quot;font-size: 12px;&quot;&gt;de acordo com o endereço&lt;/font&gt;" style="text;html=1;align=center;verticalAlign=middle;resizable=0;points=[];autosize=1;strokeColor=none;fillColor=none;" parent="1" vertex="1">
          <mxGeometry x="714" y="1398" width="170" height="30" as="geometry" />
        </mxCell>
        <mxCell id="xMwsVCY1hg7gADn5wVJ1-3" style="edgeStyle=orthogonalEdgeStyle;rounded=0;orthogonalLoop=1;jettySize=auto;html=1;" edge="1" parent="1" source="xMwsVCY1hg7gADn5wVJ1-1" target="MyZ8YdXsMNBMQnsgoEEa-122">
          <mxGeometry relative="1" as="geometry" />
        </mxCell>
        <mxCell id="xMwsVCY1hg7gADn5wVJ1-4" style="edgeStyle=orthogonalEdgeStyle;rounded=0;orthogonalLoop=1;jettySize=auto;html=1;entryX=1;entryY=0.5;entryDx=0;entryDy=0;" edge="1" parent="1" source="xMwsVCY1hg7gADn5wVJ1-1" target="MyZ8YdXsMNBMQnsgoEEa-93">
          <mxGeometry relative="1" as="geometry">
            <Array as="points">
              <mxPoint x="830" y="960" />
              <mxPoint x="830" y="635" />
            </Array>
          </mxGeometry>
        </mxCell>
        <mxCell id="xMwsVCY1hg7gADn5wVJ1-1" value="Envia comando de finalização de comunicação" style="ellipse;whiteSpace=wrap;html=1;" vertex="1" parent="1">
          <mxGeometry x="538.45" y="920" width="120" height="80" as="geometry" />
        </mxCell>
      </root>
    </mxGraphModel>
  </diagram>
</mxfile>
